<svg width="258" height="48" viewBox="0 0 258 48" fill="none" xmlns="http://www.w3.org/2000/svg">
<g filter="url(#filter0_d_3_3)">
<mask id="path-1-outside-1_3_3" maskUnits="userSpaceOnUse" x="3" y="-1" width="252" height="42" fill="black">
<rect fill="white" x="3" y="-1" width="252" height="42"/>
<path d="M4 17.56L21.2 10.32L22.76 15.16L10.2 20.04L22.76 24.92L21.2 29.76L4 22.52V17.56Z"/>
<path d="M46.4944 32C46.201 31.04 45.8677 30.0533 45.4944 29.04C45.1477 28.0267 44.801 27.0133 44.4544 26H33.6544C33.3077 27.0133 32.9477 28.0267 32.5744 29.04C32.2277 30.0533 31.9077 31.04 31.6144 32H25.1344C26.1744 29.0133 27.161 26.2533 28.0944 23.72C29.0277 21.1867 29.9344 18.8 30.8144 16.56C31.721 14.32 32.601 12.2 33.4544 10.2C34.3344 8.17333 35.241 6.2 36.1744 4.28H42.1344C43.041 6.2 43.9344 8.17333 44.8144 10.2C45.6944 12.2 46.5744 14.32 47.4544 16.56C48.361 18.8 49.281 21.1867 50.2144 23.72C51.1477 26.2533 52.1344 29.0133 53.1744 32H46.4944ZM39.0144 10.56C38.881 10.96 38.681 11.5067 38.4144 12.2C38.1477 12.8933 37.841 13.6933 37.4944 14.6C37.1477 15.5067 36.761 16.5067 36.3344 17.6C35.9344 18.6933 35.521 19.84 35.0944 21.04H42.9744C42.5477 19.84 42.1344 18.6933 41.7344 17.6C41.3344 16.5067 40.9477 15.5067 40.5744 14.6C40.2277 13.6933 39.921 12.8933 39.6544 12.2C39.3877 11.5067 39.1744 10.96 39.0144 10.56ZM69.8425 21.64C69.8425 19.8 69.4292 18.3333 68.6025 17.24C67.7758 16.12 66.5492 15.56 64.9225 15.56C64.3892 15.56 63.8958 15.5867 63.4425 15.64C62.9892 15.6667 62.6158 15.7067 62.3225 15.76V26.52C62.6958 26.76 63.1758 26.96 63.7625 27.12C64.3758 27.28 64.9892 27.36 65.6025 27.36C68.4292 27.36 69.8425 25.4533 69.8425 21.64ZM75.9225 21.48C75.9225 23.1067 75.7225 24.5867 75.3225 25.92C74.9225 27.2533 74.3358 28.4 73.5625 29.36C72.7892 30.32 71.8292 31.0667 70.6825 31.6C69.5358 32.1333 68.2158 32.4 66.7225 32.4C65.8958 32.4 65.1225 32.32 64.4025 32.16C63.6825 32 62.9892 31.7733 62.3225 31.48V39.4H56.3625V11.68C56.8958 11.52 57.5092 11.3733 58.2025 11.24C58.8958 11.08 59.6158 10.9467 60.3625 10.84C61.1358 10.7333 61.9092 10.6533 62.6825 10.6C63.4825 10.52 64.2425 10.48 64.9625 10.48C66.6958 10.48 68.2425 10.7467 69.6025 11.28C70.9625 11.7867 72.1092 12.52 73.0425 13.48C73.9758 14.4133 74.6825 15.56 75.1625 16.92C75.6692 18.28 75.9225 19.8 75.9225 21.48ZM93.1831 16.24C92.6498 16.1067 92.0231 15.9733 91.3031 15.84C90.5831 15.68 89.8098 15.6 88.9831 15.6C88.6098 15.6 88.1565 15.64 87.6231 15.72C87.1165 15.7733 86.7298 15.84 86.4631 15.92V32H80.5031V12.08C81.5698 11.7067 82.8231 11.36 84.2631 11.04C85.7298 10.6933 87.3565 10.52 89.1431 10.52C89.4631 10.52 89.8498 10.5467 90.3031 10.6C90.7565 10.6267 91.2098 10.68 91.6631 10.76C92.1165 10.8133 92.5698 10.8933 93.0231 11C93.4765 11.08 93.8631 11.1867 94.1831 11.32L93.1831 16.24ZM95.9875 21.64C95.9875 19.7733 96.2675 18.1467 96.8275 16.76C97.4142 15.3467 98.1742 14.1733 99.1075 13.24C100.041 12.3067 101.108 11.6 102.308 11.12C103.534 10.64 104.788 10.4 106.068 10.4C109.054 10.4 111.414 11.32 113.148 13.16C114.881 14.9733 115.748 17.6533 115.748 21.2C115.748 21.5467 115.734 21.9333 115.708 22.36C115.681 22.76 115.654 23.12 115.628 23.44H102.108C102.241 24.6667 102.814 25.64 103.828 26.36C104.841 27.08 106.201 27.44 107.908 27.44C109.001 27.44 110.068 27.3467 111.108 27.16C112.174 26.9467 113.041 26.6933 113.708 26.4L114.508 31.24C114.188 31.4 113.761 31.56 113.228 31.72C112.694 31.88 112.094 32.0133 111.428 32.12C110.788 32.2533 110.094 32.36 109.348 32.44C108.601 32.52 107.854 32.56 107.108 32.56C105.214 32.56 103.561 32.28 102.148 31.72C100.761 31.16 99.6008 30.4 98.6675 29.44C97.7608 28.4533 97.0808 27.2933 96.6275 25.96C96.2008 24.6267 95.9875 23.1867 95.9875 21.64ZM109.988 19.36C109.961 18.8533 109.868 18.36 109.708 17.88C109.574 17.4 109.348 16.9733 109.028 16.6C108.734 16.2267 108.348 15.92 107.868 15.68C107.414 15.44 106.841 15.32 106.148 15.32C105.481 15.32 104.908 15.44 104.428 15.68C103.948 15.8933 103.548 16.1867 103.228 16.56C102.908 16.9333 102.654 17.3733 102.468 17.88C102.308 18.36 102.188 18.8533 102.108 19.36H109.988ZM120.347 11.68C121.36 11.3867 122.667 11.12 124.267 10.88C125.867 10.6133 127.547 10.48 129.307 10.48C131.094 10.48 132.574 10.72 133.747 11.2C134.947 11.6533 135.894 12.3067 136.587 13.16C137.28 14.0133 137.774 15.0267 138.067 16.2C138.36 17.3733 138.507 18.68 138.507 20.12V32H132.547V20.84C132.547 18.92 132.294 17.56 131.787 16.76C131.28 15.96 130.334 15.56 128.947 15.56C128.52 15.56 128.067 15.5867 127.587 15.64C127.107 15.6667 126.68 15.7067 126.307 15.76V32H120.347V11.68ZM148.982 21.32C148.982 23.16 149.395 24.64 150.222 25.76C151.048 26.88 152.275 27.44 153.902 27.44C154.435 27.44 154.928 27.4267 155.382 27.4C155.835 27.3467 156.208 27.2933 156.502 27.24V16.4C156.128 16.16 155.635 15.96 155.022 15.8C154.435 15.64 153.835 15.56 153.222 15.56C150.395 15.56 148.982 17.48 148.982 21.32ZM162.462 31.32C161.928 31.48 161.315 31.64 160.622 31.8C159.928 31.9333 159.195 32.0533 158.422 32.16C157.675 32.2667 156.902 32.3467 156.102 32.4C155.328 32.48 154.582 32.52 153.862 32.52C152.128 32.52 150.582 32.2667 149.222 31.76C147.862 31.2533 146.715 30.5333 145.782 29.6C144.848 28.64 144.128 27.4933 143.622 26.16C143.142 24.8 142.902 23.28 142.902 21.6C142.902 19.8933 143.115 18.36 143.542 17C143.968 15.6133 144.582 14.44 145.382 13.48C146.182 12.52 147.155 11.7867 148.302 11.28C149.475 10.7733 150.808 10.52 152.302 10.52C153.128 10.52 153.862 10.6 154.502 10.76C155.168 10.92 155.835 11.1467 156.502 11.44V1.92L162.462 0.959999V31.32ZM167.042 21.64C167.042 19.7733 167.322 18.1467 167.882 16.76C168.469 15.3467 169.229 14.1733 170.162 13.24C171.096 12.3067 172.162 11.6 173.362 11.12C174.589 10.64 175.842 10.4 177.122 10.4C180.109 10.4 182.469 11.32 184.202 13.16C185.936 14.9733 186.802 17.6533 186.802 21.2C186.802 21.5467 186.789 21.9333 186.762 22.36C186.736 22.76 186.709 23.12 186.682 23.44H173.162C173.296 24.6667 173.869 25.64 174.882 26.36C175.896 27.08 177.256 27.44 178.962 27.44C180.056 27.44 181.122 27.3467 182.162 27.16C183.229 26.9467 184.096 26.6933 184.762 26.4L185.562 31.24C185.242 31.4 184.816 31.56 184.282 31.72C183.749 31.88 183.149 32.0133 182.482 32.12C181.842 32.2533 181.149 32.36 180.402 32.44C179.656 32.52 178.909 32.56 178.162 32.56C176.269 32.56 174.616 32.28 173.202 31.72C171.816 31.16 170.656 30.4 169.722 29.44C168.816 28.4533 168.136 27.2933 167.682 25.96C167.256 24.6267 167.042 23.1867 167.042 21.64ZM181.042 19.36C181.016 18.8533 180.922 18.36 180.762 17.88C180.629 17.4 180.402 16.9733 180.082 16.6C179.789 16.2267 179.402 15.92 178.922 15.68C178.469 15.44 177.896 15.32 177.202 15.32C176.536 15.32 175.962 15.44 175.482 15.68C175.002 15.8933 174.602 16.1867 174.282 16.56C173.962 16.9333 173.709 17.3733 173.522 17.88C173.362 18.36 173.242 18.8533 173.162 19.36H181.042ZM204.082 16.24C203.548 16.1067 202.922 15.9733 202.202 15.84C201.482 15.68 200.708 15.6 199.882 15.6C199.508 15.6 199.055 15.64 198.522 15.72C198.015 15.7733 197.628 15.84 197.362 15.92V32H191.402V12.08C192.468 11.7067 193.722 11.36 195.162 11.04C196.628 10.6933 198.255 10.52 200.042 10.52C200.362 10.52 200.748 10.5467 201.202 10.6C201.655 10.6267 202.108 10.68 202.562 10.76C203.015 10.8133 203.468 10.8933 203.922 11C204.375 11.08 204.762 11.1867 205.082 11.32L204.082 16.24Z"/>
<path d="M220.206 39.4H214.086L227.526 0.679998H233.566L220.206 39.4ZM253.267 22.52L236.067 29.76L234.507 24.92L247.067 20.04L234.507 15.16L236.067 10.32L253.267 17.56V22.52Z"/>
</mask>
<path d="M4 17.56L21.2 10.32L22.76 15.16L10.2 20.04L22.76 24.92L21.2 29.76L4 22.52V17.56Z" fill="#B9971E"/>
<path d="M46.4944 32C46.201 31.04 45.8677 30.0533 45.4944 29.04C45.1477 28.0267 44.801 27.0133 44.4544 26H33.6544C33.3077 27.0133 32.9477 28.0267 32.5744 29.04C32.2277 30.0533 31.9077 31.04 31.6144 32H25.1344C26.1744 29.0133 27.161 26.2533 28.0944 23.72C29.0277 21.1867 29.9344 18.8 30.8144 16.56C31.721 14.32 32.601 12.2 33.4544 10.2C34.3344 8.17333 35.241 6.2 36.1744 4.28H42.1344C43.041 6.2 43.9344 8.17333 44.8144 10.2C45.6944 12.2 46.5744 14.32 47.4544 16.56C48.361 18.8 49.281 21.1867 50.2144 23.72C51.1477 26.2533 52.1344 29.0133 53.1744 32H46.4944ZM39.0144 10.56C38.881 10.96 38.681 11.5067 38.4144 12.2C38.1477 12.8933 37.841 13.6933 37.4944 14.6C37.1477 15.5067 36.761 16.5067 36.3344 17.6C35.9344 18.6933 35.521 19.84 35.0944 21.04H42.9744C42.5477 19.84 42.1344 18.6933 41.7344 17.6C41.3344 16.5067 40.9477 15.5067 40.5744 14.6C40.2277 13.6933 39.921 12.8933 39.6544 12.2C39.3877 11.5067 39.1744 10.96 39.0144 10.56ZM69.8425 21.64C69.8425 19.8 69.4292 18.3333 68.6025 17.24C67.7758 16.12 66.5492 15.56 64.9225 15.56C64.3892 15.56 63.8958 15.5867 63.4425 15.64C62.9892 15.6667 62.6158 15.7067 62.3225 15.76V26.52C62.6958 26.76 63.1758 26.96 63.7625 27.12C64.3758 27.28 64.9892 27.36 65.6025 27.36C68.4292 27.36 69.8425 25.4533 69.8425 21.64ZM75.9225 21.48C75.9225 23.1067 75.7225 24.5867 75.3225 25.92C74.9225 27.2533 74.3358 28.4 73.5625 29.36C72.7892 30.32 71.8292 31.0667 70.6825 31.6C69.5358 32.1333 68.2158 32.4 66.7225 32.4C65.8958 32.4 65.1225 32.32 64.4025 32.16C63.6825 32 62.9892 31.7733 62.3225 31.48V39.4H56.3625V11.68C56.8958 11.52 57.5092 11.3733 58.2025 11.24C58.8958 11.08 59.6158 10.9467 60.3625 10.84C61.1358 10.7333 61.9092 10.6533 62.6825 10.6C63.4825 10.52 64.2425 10.48 64.9625 10.48C66.6958 10.48 68.2425 10.7467 69.6025 11.28C70.9625 11.7867 72.1092 12.52 73.0425 13.48C73.9758 14.4133 74.6825 15.56 75.1625 16.92C75.6692 18.28 75.9225 19.8 75.9225 21.48ZM93.1831 16.24C92.6498 16.1067 92.0231 15.9733 91.3031 15.84C90.5831 15.68 89.8098 15.6 88.9831 15.6C88.6098 15.6 88.1565 15.64 87.6231 15.72C87.1165 15.7733 86.7298 15.84 86.4631 15.92V32H80.5031V12.08C81.5698 11.7067 82.8231 11.36 84.2631 11.04C85.7298 10.6933 87.3565 10.52 89.1431 10.52C89.4631 10.52 89.8498 10.5467 90.3031 10.6C90.7565 10.6267 91.2098 10.68 91.6631 10.76C92.1165 10.8133 92.5698 10.8933 93.0231 11C93.4765 11.08 93.8631 11.1867 94.1831 11.32L93.1831 16.24ZM95.9875 21.64C95.9875 19.7733 96.2675 18.1467 96.8275 16.76C97.4142 15.3467 98.1742 14.1733 99.1075 13.24C100.041 12.3067 101.108 11.6 102.308 11.12C103.534 10.64 104.788 10.4 106.068 10.4C109.054 10.4 111.414 11.32 113.148 13.16C114.881 14.9733 115.748 17.6533 115.748 21.2C115.748 21.5467 115.734 21.9333 115.708 22.36C115.681 22.76 115.654 23.12 115.628 23.44H102.108C102.241 24.6667 102.814 25.64 103.828 26.36C104.841 27.08 106.201 27.44 107.908 27.44C109.001 27.44 110.068 27.3467 111.108 27.16C112.174 26.9467 113.041 26.6933 113.708 26.4L114.508 31.24C114.188 31.4 113.761 31.56 113.228 31.72C112.694 31.88 112.094 32.0133 111.428 32.12C110.788 32.2533 110.094 32.36 109.348 32.44C108.601 32.52 107.854 32.56 107.108 32.56C105.214 32.56 103.561 32.28 102.148 31.72C100.761 31.16 99.6008 30.4 98.6675 29.44C97.7608 28.4533 97.0808 27.2933 96.6275 25.96C96.2008 24.6267 95.9875 23.1867 95.9875 21.64ZM109.988 19.36C109.961 18.8533 109.868 18.36 109.708 17.88C109.574 17.4 109.348 16.9733 109.028 16.6C108.734 16.2267 108.348 15.92 107.868 15.68C107.414 15.44 106.841 15.32 106.148 15.32C105.481 15.32 104.908 15.44 104.428 15.68C103.948 15.8933 103.548 16.1867 103.228 16.56C102.908 16.9333 102.654 17.3733 102.468 17.88C102.308 18.36 102.188 18.8533 102.108 19.36H109.988ZM120.347 11.68C121.36 11.3867 122.667 11.12 124.267 10.88C125.867 10.6133 127.547 10.48 129.307 10.48C131.094 10.48 132.574 10.72 133.747 11.2C134.947 11.6533 135.894 12.3067 136.587 13.16C137.28 14.0133 137.774 15.0267 138.067 16.2C138.36 17.3733 138.507 18.68 138.507 20.12V32H132.547V20.84C132.547 18.92 132.294 17.56 131.787 16.76C131.28 15.96 130.334 15.56 128.947 15.56C128.52 15.56 128.067 15.5867 127.587 15.64C127.107 15.6667 126.68 15.7067 126.307 15.76V32H120.347V11.68ZM148.982 21.32C148.982 23.16 149.395 24.64 150.222 25.76C151.048 26.88 152.275 27.44 153.902 27.44C154.435 27.44 154.928 27.4267 155.382 27.4C155.835 27.3467 156.208 27.2933 156.502 27.24V16.4C156.128 16.16 155.635 15.96 155.022 15.8C154.435 15.64 153.835 15.56 153.222 15.56C150.395 15.56 148.982 17.48 148.982 21.32ZM162.462 31.32C161.928 31.48 161.315 31.64 160.622 31.8C159.928 31.9333 159.195 32.0533 158.422 32.16C157.675 32.2667 156.902 32.3467 156.102 32.4C155.328 32.48 154.582 32.52 153.862 32.52C152.128 32.52 150.582 32.2667 149.222 31.76C147.862 31.2533 146.715 30.5333 145.782 29.6C144.848 28.64 144.128 27.4933 143.622 26.16C143.142 24.8 142.902 23.28 142.902 21.6C142.902 19.8933 143.115 18.36 143.542 17C143.968 15.6133 144.582 14.44 145.382 13.48C146.182 12.52 147.155 11.7867 148.302 11.28C149.475 10.7733 150.808 10.52 152.302 10.52C153.128 10.52 153.862 10.6 154.502 10.76C155.168 10.92 155.835 11.1467 156.502 11.44V1.92L162.462 0.959999V31.32ZM167.042 21.64C167.042 19.7733 167.322 18.1467 167.882 16.76C168.469 15.3467 169.229 14.1733 170.162 13.24C171.096 12.3067 172.162 11.6 173.362 11.12C174.589 10.64 175.842 10.4 177.122 10.4C180.109 10.4 182.469 11.32 184.202 13.16C185.936 14.9733 186.802 17.6533 186.802 21.2C186.802 21.5467 186.789 21.9333 186.762 22.36C186.736 22.76 186.709 23.12 186.682 23.44H173.162C173.296 24.6667 173.869 25.64 174.882 26.36C175.896 27.08 177.256 27.44 178.962 27.44C180.056 27.44 181.122 27.3467 182.162 27.16C183.229 26.9467 184.096 26.6933 184.762 26.4L185.562 31.24C185.242 31.4 184.816 31.56 184.282 31.72C183.749 31.88 183.149 32.0133 182.482 32.12C181.842 32.2533 181.149 32.36 180.402 32.44C179.656 32.52 178.909 32.56 178.162 32.56C176.269 32.56 174.616 32.28 173.202 31.72C171.816 31.16 170.656 30.4 169.722 29.44C168.816 28.4533 168.136 27.2933 167.682 25.96C167.256 24.6267 167.042 23.1867 167.042 21.64ZM181.042 19.36C181.016 18.8533 180.922 18.36 180.762 17.88C180.629 17.4 180.402 16.9733 180.082 16.6C179.789 16.2267 179.402 15.92 178.922 15.68C178.469 15.44 177.896 15.32 177.202 15.32C176.536 15.32 175.962 15.44 175.482 15.68C175.002 15.8933 174.602 16.1867 174.282 16.56C173.962 16.9333 173.709 17.3733 173.522 17.88C173.362 18.36 173.242 18.8533 173.162 19.36H181.042ZM204.082 16.24C203.548 16.1067 202.922 15.9733 202.202 15.84C201.482 15.68 200.708 15.6 199.882 15.6C199.508 15.6 199.055 15.64 198.522 15.72C198.015 15.7733 197.628 15.84 197.362 15.92V32H191.402V12.08C192.468 11.7067 193.722 11.36 195.162 11.04C196.628 10.6933 198.255 10.52 200.042 10.52C200.362 10.52 200.748 10.5467 201.202 10.6C201.655 10.6267 202.108 10.68 202.562 10.76C203.015 10.8133 203.468 10.8933 203.922 11C204.375 11.08 204.762 11.1867 205.082 11.32L204.082 16.24Z" fill="white"/>
<path d="M220.206 39.4H214.086L227.526 0.679998H233.566L220.206 39.4ZM253.267 22.52L236.067 29.76L234.507 24.92L247.067 20.04L234.507 15.16L236.067 10.32L253.267 17.56V22.52Z" fill="#8872E7"/>
<path d="M4 17.56L3.61204 16.6383L3 16.8959V17.56H4ZM21.2 10.32L22.1518 10.0132L21.8172 8.97521L20.812 9.39832L21.2 10.32ZM22.76 15.16L23.1222 16.0921L24.001 15.7506L23.7118 14.8532L22.76 15.16ZM10.2 20.04L9.83784 19.1079L7.43879 20.04L9.83784 20.9721L10.2 20.04ZM22.76 24.92L23.7118 25.2268L24.001 24.3294L23.1222 23.9879L22.76 24.92ZM21.2 29.76L20.812 30.6817L21.8172 31.1048L22.1518 30.0668L21.2 29.76ZM4 22.52H3V23.184L3.61204 23.4417L4 22.52ZM4.38796 18.4817L21.588 11.2417L20.812 9.39832L3.61204 16.6383L4.38796 18.4817ZM20.2482 10.6268L21.8082 15.4668L23.7118 14.8532L22.1518 10.0132L20.2482 10.6268ZM22.3978 14.2279L9.83784 19.1079L10.5622 20.9721L23.1222 16.0921L22.3978 14.2279ZM9.83784 20.9721L22.3978 25.8521L23.1222 23.9879L10.5622 19.1079L9.83784 20.9721ZM21.8082 24.6132L20.2482 29.4532L22.1518 30.0668L23.7118 25.2268L21.8082 24.6132ZM21.588 28.8383L4.38796 21.5983L3.61204 23.4417L20.812 30.6817L21.588 28.8383ZM5 22.52V17.56H3V22.52H5ZM46.4944 32L45.538 32.2922L45.7543 33H46.4944V32ZM45.4944 29.04L44.5482 29.3637L44.552 29.3747L44.556 29.3857L45.4944 29.04ZM44.4544 26L45.4005 25.6763L45.1692 25H44.4544V26ZM33.6544 26V25H32.9396L32.7082 25.6763L33.6544 26ZM32.5744 29.04L31.636 28.6943L31.632 28.7053L31.6282 28.7163L32.5744 29.04ZM31.6144 32V33H32.3545L32.5707 32.2922L31.6144 32ZM25.1344 32L24.19 31.6712L23.7273 33H25.1344V32ZM28.0944 23.72L29.0327 24.0657L28.0944 23.72ZM30.8144 16.56L29.8874 16.1848L29.8836 16.1943L30.8144 16.56ZM33.4544 10.2L32.5371 9.80171L32.5346 9.80756L33.4544 10.2ZM36.1744 4.28V3.28H35.5486L35.275 3.84281L36.1744 4.28ZM42.1344 4.28L43.0386 3.85299L42.768 3.28H42.1344V4.28ZM44.8144 10.2L43.8971 10.5983L43.8991 10.6027L44.8144 10.2ZM47.4544 16.56L46.5236 16.9257L46.5274 16.9352L47.4544 16.56ZM50.2144 23.72L49.276 24.0657L50.2144 23.72ZM53.1744 32V33H54.5815L54.1188 31.6712L53.1744 32ZM39.0144 10.56L39.9429 10.1886L38.929 7.65392L38.0657 10.2438L39.0144 10.56ZM38.4144 12.2L37.481 11.841V11.841L38.4144 12.2ZM37.4944 14.6L36.5603 14.2429V14.2429L37.4944 14.6ZM36.3344 17.6L35.4028 17.2365L35.3989 17.2464L35.3953 17.2564L36.3344 17.6ZM35.0944 21.04L34.1522 20.705L33.6775 22.04H35.0944V21.04ZM42.9744 21.04V22.04H44.3913L43.9166 20.705L42.9744 21.04ZM41.7344 17.6L40.7953 17.9436L41.7344 17.6ZM40.5744 14.6L39.6403 14.9571L39.6449 14.969L39.6497 14.9807L40.5744 14.6ZM39.6544 12.2L40.5877 11.841V11.841L39.6544 12.2ZM47.4507 31.7078C47.1515 30.7285 46.8121 29.724 46.4327 28.6943L44.556 29.3857C44.9233 30.3827 45.2506 31.3515 45.538 32.2922L47.4507 31.7078ZM46.4405 28.7163C46.2602 28.1891 46.1009 27.7235 45.9205 27.1963C45.9041 27.1483 45.872 27.0543 45.8555 27.0063C45.8391 26.9583 45.807 26.8643 45.7905 26.8163C45.7741 26.7683 45.742 26.6743 45.7255 26.6263C45.7091 26.5783 45.677 26.4843 45.6605 26.4363C45.6441 26.3883 45.6119 26.2943 45.5955 26.2463C45.5791 26.1983 45.547 26.1043 45.5305 26.0563C45.5141 26.0083 45.482 25.9143 45.4655 25.8663C45.4491 25.8183 45.417 25.7243 45.4005 25.6763L43.5082 26.3237C43.675 26.8113 43.8614 27.3561 44.0282 27.8437C44.046 27.8956 44.0755 27.9818 44.0932 28.0337C44.111 28.0856 44.1404 28.1718 44.1582 28.2237C44.176 28.2756 44.2055 28.3618 44.2232 28.4137C44.2492 28.4897 44.2622 28.5277 44.2882 28.6037C44.3142 28.6797 44.3272 28.7177 44.3532 28.7937C44.3792 28.8697 44.3922 28.9077 44.4182 28.9837C44.4442 29.0597 44.4572 29.0977 44.4832 29.1737C44.5092 29.2497 44.5222 29.2877 44.5482 29.3637L46.4405 28.7163ZM44.4544 25H33.6544V27H44.4544V25ZM32.7082 25.6763C32.3641 26.6822 32.0067 27.6882 31.636 28.6943L33.5127 29.3857C33.8887 28.3651 34.2513 27.3445 34.6005 26.3237L32.7082 25.6763ZM31.6282 28.7163C31.2782 29.7394 30.9548 30.7366 30.658 31.7078L32.5707 32.2922C32.8606 31.3434 33.1772 30.3673 33.5205 29.3637L31.6282 28.7163ZM31.6144 31H25.1344V33H31.6144V31ZM26.0788 32.3288C27.1171 29.3469 28.1018 26.5926 29.0327 24.0657L27.156 23.3743C26.2203 25.9141 25.2316 28.6798 24.19 31.6712L26.0788 32.3288ZM29.0327 24.0657C29.9639 21.5383 30.868 19.1583 31.7451 16.9257L29.8836 16.1943C29.0007 18.4417 28.0915 20.8351 27.156 23.3743L29.0327 24.0657ZM31.7413 16.9352C32.6459 14.7003 33.5235 12.5861 34.3742 10.5924L32.5346 9.80756C31.6786 11.8139 30.7962 13.9397 29.8874 16.1848L31.7413 16.9352ZM34.3716 10.5983C35.2461 8.58426 36.1469 6.62391 37.0737 4.71719L35.275 3.84281C34.3352 5.77608 33.4226 7.76241 32.5371 9.80171L34.3716 10.5983ZM36.1744 5.28H42.1344V3.28H36.1744V5.28ZM41.2301 4.70701C42.1321 6.61713 43.0211 8.58087 43.8971 10.5983L45.7316 9.80171C44.8476 7.76579 43.95 5.78287 43.0386 3.85299L41.2301 4.70701ZM43.8991 10.6027C44.7732 12.5893 45.648 14.6969 46.5236 16.9257L48.3851 16.1943C47.5007 13.9431 46.6156 11.8107 45.7297 9.79726L43.8991 10.6027ZM46.5274 16.9352C47.4297 19.1644 48.3459 21.5411 49.276 24.0657L51.1527 23.3743C50.2162 20.8322 49.2924 18.4356 48.3813 16.1848L46.5274 16.9352ZM49.276 24.0657C50.207 26.5926 51.1916 29.3469 52.23 32.3288L54.1188 31.6712C53.0771 28.6798 52.0884 25.9141 51.1527 23.3743L49.276 24.0657ZM53.1744 31H46.4944V33H53.1744V31ZM38.0657 10.2438C37.9394 10.6226 37.7457 11.1529 37.481 11.841L39.3477 12.559C39.6164 11.8604 39.8227 11.2974 39.9631 10.8762L38.0657 10.2438ZM37.481 11.841C37.2141 12.5351 36.9072 13.3358 36.5603 14.2429L38.4284 14.9571C38.7749 14.0509 39.0813 13.2515 39.3477 12.559L37.481 11.841ZM36.5603 14.2429C36.2146 15.147 35.8288 16.1448 35.4028 17.2365L37.266 17.9635C37.6933 16.8685 38.0808 15.8663 38.4284 14.9571L36.5603 14.2429ZM35.3953 17.2564C34.9941 18.3529 34.5798 19.5024 34.1522 20.705L36.0366 21.375C36.4623 20.1776 36.8746 19.0338 37.2735 17.9436L35.3953 17.2564ZM35.0944 22.04H42.9744V20.04H35.0944V22.04ZM43.9166 20.705C43.489 19.5024 43.0746 18.3529 42.6735 17.2564L40.7953 17.9436C41.1941 19.0338 41.6064 20.1776 42.0322 21.375L43.9166 20.705ZM42.6735 17.2564C42.2697 16.1528 41.8783 15.1402 41.4991 14.2192L39.6497 14.9807C40.0171 15.8731 40.399 16.8605 40.7953 17.9436L42.6735 17.2564ZM41.5084 14.2429C41.1616 13.3358 40.8547 12.5351 40.5877 11.841L38.721 12.559C38.9874 13.2515 39.2938 14.0509 39.6403 14.9571L41.5084 14.2429ZM40.5877 11.841C40.3204 11.146 40.1053 10.5946 39.9429 10.1886L38.0859 10.9314C38.2435 11.3254 38.455 11.8673 38.721 12.559L40.5877 11.841ZM68.6025 17.24L67.7979 17.8339L67.8048 17.8431L68.6025 17.24ZM63.4425 15.64L63.5012 16.6383L63.5304 16.6366L63.5593 16.6332L63.4425 15.64ZM62.3225 15.76L62.1436 14.7761L61.3225 14.9254V15.76H62.3225ZM62.3225 26.52H61.3225V27.066L61.7817 27.3612L62.3225 26.52ZM63.7625 27.12L63.4994 28.0848L63.5101 28.0876L63.7625 27.12ZM75.3225 25.92L74.3647 25.6327L75.3225 25.92ZM73.5625 29.36L72.7837 28.7327L73.5625 29.36ZM70.6825 31.6L71.1042 32.5067L70.6825 31.6ZM64.4025 32.16L64.6194 31.1838L64.4025 32.16ZM62.3225 31.48L62.7252 30.5647L61.3225 29.9475V31.48H62.3225ZM62.3225 39.4V40.4H63.3225V39.4H62.3225ZM56.3625 39.4H55.3625V40.4H56.3625V39.4ZM56.3625 11.68L56.0752 10.7222L55.3625 10.936V11.68H56.3625ZM58.2025 11.24L58.3913 12.222L58.4094 12.2185L58.4274 12.2144L58.2025 11.24ZM60.3625 10.84L60.2259 9.84937L60.2211 9.85005L60.3625 10.84ZM62.6825 10.6L62.7513 11.5976L62.7667 11.5966L62.782 11.595L62.6825 10.6ZM69.6025 11.28L69.2374 12.211L69.2454 12.2141L69.2534 12.2171L69.6025 11.28ZM73.0425 13.48L72.3254 14.1771L72.3354 14.1871L73.0425 13.48ZM75.1625 16.92L74.2195 17.2528L74.2224 17.261L74.2254 17.2691L75.1625 16.92ZM70.8425 21.64C70.8425 19.6562 70.3966 17.9548 69.4002 16.6369L67.8048 17.8431C68.4617 18.7119 68.8425 19.9438 68.8425 21.64H70.8425ZM69.4071 16.6461C68.3585 15.2254 66.8058 14.56 64.9225 14.56V16.56C66.2925 16.56 67.1932 17.0145 67.7979 17.8339L69.4071 16.6461ZM64.9225 14.56C64.3564 14.56 63.8236 14.5883 63.3257 14.6468L63.5593 16.6332C63.9681 16.5851 64.4219 16.56 64.9225 16.56V14.56ZM63.3838 14.6417C62.9086 14.6697 62.4915 14.7129 62.1436 14.7761L62.5014 16.7439C62.7402 16.7005 63.0697 16.6637 63.5012 16.6383L63.3838 14.6417ZM61.3225 15.76V26.52H63.3225V15.76H61.3225ZM61.7817 27.3612C62.2659 27.6724 62.8481 27.9071 63.4994 28.0848L64.0256 26.1552C63.5036 26.0129 63.1258 25.8476 62.8633 25.6788L61.7817 27.3612ZM63.5101 28.0876C64.2031 28.2684 64.9012 28.36 65.6025 28.36V26.36C65.0772 26.36 64.5486 26.2916 64.0149 26.1524L63.5101 28.0876ZM65.6025 28.36C67.2643 28.36 68.6533 27.7836 69.5859 26.5255C70.4769 25.3235 70.8425 23.641 70.8425 21.64H68.8425C68.8425 23.4523 68.5015 24.6298 67.9791 25.3345C67.4984 25.9831 66.7674 26.36 65.6025 26.36V28.36ZM74.9225 21.48C74.9225 23.0253 74.7325 24.4067 74.3647 25.6327L76.2803 26.2073C76.7125 24.7666 76.9225 23.188 76.9225 21.48H74.9225ZM74.3647 25.6327C73.997 26.8581 73.4662 27.8855 72.7837 28.7327L74.3413 29.9873C75.2055 28.9145 75.848 27.6486 76.2803 26.2073L74.3647 25.6327ZM72.7837 28.7327C72.109 29.5703 71.2723 30.2228 70.2608 30.6933L71.1042 32.5067C72.386 31.9105 73.4693 31.0697 74.3413 29.9873L72.7837 28.7327ZM70.2608 30.6933C69.268 31.155 68.0962 31.4 66.7225 31.4V33.4C68.3354 33.4 69.8037 33.1116 71.1042 32.5067L70.2608 30.6933ZM66.7225 31.4C65.9602 31.4 65.2603 31.3262 64.6194 31.1838L64.1856 33.1362C64.9847 33.3138 65.8315 33.4 66.7225 33.4V31.4ZM64.6194 31.1838C63.9624 31.0378 63.3314 30.8314 62.7252 30.5647L61.9198 32.3953C62.647 32.7153 63.4026 32.9622 64.1856 33.1362L64.6194 31.1838ZM61.3225 31.48V39.4H63.3225V31.48H61.3225ZM62.3225 38.4H56.3625V40.4H62.3225V38.4ZM57.3625 39.4V11.68H55.3625V39.4H57.3625ZM56.6498 12.6378C57.1436 12.4897 57.7229 12.3506 58.3913 12.222L58.0136 10.258C57.2954 10.3961 56.6481 10.5503 56.0752 10.7222L56.6498 12.6378ZM58.4274 12.2144C59.0915 12.0611 59.7836 11.9328 60.5039 11.8299L60.2211 9.85005C59.4481 9.96048 58.7001 10.0989 57.9776 10.2656L58.4274 12.2144ZM60.4991 11.8306C61.2501 11.727 62.0008 11.6494 62.7513 11.5976L62.6137 9.60237C61.8175 9.65728 61.0216 9.73962 60.2259 9.84938L60.4991 11.8306ZM62.782 11.595C63.5527 11.518 64.2793 11.48 64.9625 11.48V9.48C64.2057 9.48 63.4123 9.52203 62.583 9.60496L62.782 11.595ZM64.9625 11.48C66.5937 11.48 68.0132 11.7309 69.2374 12.211L69.9676 10.349C68.4718 9.76243 66.798 9.48 64.9625 9.48V11.48ZM69.2534 12.2171C70.4863 12.6764 71.504 13.3321 72.3255 14.1771L73.7595 12.7829C72.7144 11.7079 71.4387 10.8969 69.9516 10.3429L69.2534 12.2171ZM72.3354 14.1871C73.1536 15.0054 73.7845 16.0204 74.2195 17.2528L76.1055 16.5872C75.5805 15.0996 74.798 13.8213 73.7496 12.7729L72.3354 14.1871ZM74.2254 17.2691C74.6845 18.5013 74.9225 19.9007 74.9225 21.48H76.9225C76.9225 19.6993 76.6539 18.0587 76.0996 16.5709L74.2254 17.2691ZM93.1831 16.24L92.9406 17.2101L93.9548 17.4637L94.1631 16.4392L93.1831 16.24ZM91.3031 15.84L91.0862 16.8162L91.1036 16.82L91.121 16.8233L91.3031 15.84ZM87.6231 15.72L87.7278 16.7145L87.7497 16.7122L87.7715 16.7089L87.6231 15.72ZM86.4631 15.92L86.1758 14.9622L85.4631 15.176V15.92H86.4631ZM86.4631 32V33H87.4631V32H86.4631ZM80.5031 32H79.5031V33H80.5031V32ZM80.5031 12.08L80.1728 11.1361L79.5031 11.3705V12.08H80.5031ZM84.2631 11.04L84.4801 12.0163L84.4931 12.0132L84.2631 11.04ZM90.3031 10.6L90.1863 11.5931L90.2153 11.5966L90.2444 11.5983L90.3031 10.6ZM91.6631 10.76L91.4893 11.7448L91.5177 11.7498L91.5463 11.7532L91.6631 10.76ZM93.0231 11L92.7941 11.9734L92.8215 11.9799L92.8493 11.9848L93.0231 11ZM94.1831 11.32L95.1631 11.5192L95.3269 10.7132L94.5677 10.3969L94.1831 11.32ZM93.4257 15.2699C92.867 15.1302 92.2193 14.9927 91.4852 14.8567L91.121 16.8233C91.8269 16.954 92.4326 17.0831 92.9406 17.2101L93.4257 15.2699ZM91.5201 14.8638C90.7209 14.6862 89.8741 14.6 88.9831 14.6V16.6C89.7455 16.6 90.4454 16.6738 91.0862 16.8162L91.5201 14.8638ZM88.9831 14.6C88.5437 14.6 88.0377 14.6466 87.4748 14.7311L87.7715 16.7089C88.2753 16.6334 88.6759 16.6 88.9831 16.6V14.6ZM87.5184 14.7255C86.9918 14.7809 86.5321 14.8553 86.1758 14.9622L86.7505 16.8778C86.9275 16.8247 87.2412 16.7657 87.7278 16.7145L87.5184 14.7255ZM85.4631 15.92V32H87.4631V15.92H85.4631ZM86.4631 31H80.5031V33H86.4631V31ZM81.5031 32V12.08H79.5031V32H81.5031ZM80.8335 13.0239C81.8538 12.6667 83.0676 12.3301 84.4801 12.0162L84.0462 10.0638C82.5787 10.3899 81.2858 10.7466 80.1728 11.1361L80.8335 13.0239ZM84.4931 12.0132C85.8721 11.6873 87.4201 11.52 89.1431 11.52V9.52C87.2929 9.52 85.5875 9.69941 84.0331 10.0668L84.4931 12.0132ZM89.1431 11.52C89.4115 11.52 89.7569 11.5426 90.1863 11.5931L90.42 9.60685C89.9427 9.5507 89.5147 9.52 89.1431 9.52V11.52ZM90.2444 11.5983C90.6586 11.6226 91.0735 11.6714 91.4893 11.7448L91.8369 9.77522C91.346 9.68859 90.8543 9.63069 90.3618 9.60172L90.2444 11.5983ZM91.5463 11.7532C91.9611 11.802 92.377 11.8753 92.7941 11.9734L93.2522 10.0266C92.7626 9.91139 92.2718 9.82471 91.78 9.76685L91.5463 11.7532ZM92.8493 11.9848C93.2523 12.0559 93.5642 12.1455 93.7985 12.2431L94.5677 10.3969C94.162 10.2279 93.7006 10.1041 93.1969 10.0152L92.8493 11.9848ZM93.2032 11.1208L92.2032 16.0408L94.1631 16.4392L95.1631 11.5192L93.2032 11.1208ZM96.8275 16.76L95.9039 16.3766L95.9003 16.3855L96.8275 16.76ZM99.1075 13.24L98.4004 12.5329L99.1075 13.24ZM102.308 11.12L101.943 10.1887L101.936 10.1915L102.308 11.12ZM113.147 13.16L112.42 13.8457L112.425 13.851L113.147 13.16ZM115.708 22.36L116.705 22.4265L116.706 22.4224L115.708 22.36ZM115.628 23.44V24.44H116.548L116.624 23.523L115.628 23.44ZM102.107 23.44V22.44H100.993L101.113 23.5481L102.107 23.44ZM103.827 26.36L103.248 27.1752L103.827 26.36ZM111.107 27.16L111.284 28.1443L111.294 28.1425L111.304 28.1406L111.107 27.16ZM113.708 26.4L114.694 26.2369L114.484 24.9658L113.305 25.4847L113.708 26.4ZM114.507 31.24L114.955 32.1344L115.614 31.8046L115.494 31.0769L114.507 31.24ZM113.228 31.72L112.94 30.7622L113.228 31.72ZM111.427 32.12L111.27 31.1326L111.246 31.1363L111.224 31.141L111.427 32.12ZM109.348 32.44L109.454 33.4343L109.348 32.44ZM102.147 31.72L101.773 32.6473L101.779 32.6497L102.147 31.72ZM98.6675 29.44L97.9312 30.1166L97.9407 30.127L97.9505 30.1371L98.6675 29.44ZM96.6275 25.96L95.6751 26.2648L95.6778 26.2734L95.6807 26.2819L96.6275 25.96ZM109.988 19.36V20.36H111.042L110.986 19.3074L109.988 19.36ZM109.708 17.88L108.744 18.1476L108.751 18.1721L108.759 18.1962L109.708 17.88ZM109.028 16.6L108.241 17.2178L108.254 17.2346L108.268 17.2508L109.028 16.6ZM107.868 15.68L107.4 16.5638L107.41 16.5692L107.42 16.5744L107.868 15.68ZM104.427 15.68L104.834 16.5938L104.854 16.5846L104.875 16.5744L104.427 15.68ZM102.467 17.88L101.529 17.5343L101.524 17.549L101.519 17.5638L102.467 17.88ZM102.107 19.36L101.12 19.204L100.937 20.36H102.107V19.36ZM96.9875 21.64C96.9875 19.8709 97.2531 18.3766 97.7547 17.1345L95.9003 16.3855C95.2819 17.9167 94.9875 19.6757 94.9875 21.64H96.9875ZM97.7511 17.1434C98.2954 15.832 98.9875 14.7742 99.8146 13.9471L98.4004 12.5329C97.3608 13.5725 96.5329 14.8613 95.9039 16.3766L97.7511 17.1434ZM99.8146 13.9471C100.654 13.1074 101.607 12.4771 102.679 12.0485L101.936 10.1915C100.608 10.7229 99.4274 11.5059 98.4004 12.5329L99.8146 13.9471ZM102.672 12.0512C103.786 11.6153 104.916 11.4 106.067 11.4V9.4C104.659 9.4 103.282 9.66467 101.943 10.1888L102.672 12.0512ZM106.067 11.4C108.833 11.4 110.91 12.2427 112.42 13.8457L113.875 12.4743C111.919 10.3973 109.275 9.4 106.067 9.4V11.4ZM112.425 13.851C113.918 15.4131 114.747 17.8038 114.747 21.2H116.747C116.747 17.5029 115.844 14.5336 113.87 12.469L112.425 13.851ZM114.747 21.2C114.747 21.5217 114.735 21.8872 114.709 22.2976L116.706 22.4224C116.733 21.9795 116.747 21.5716 116.747 21.2H114.747ZM114.71 22.2935C114.683 22.6893 114.657 23.0436 114.631 23.357L116.624 23.523C116.651 23.1964 116.678 22.8307 116.705 22.4265L114.71 22.2935ZM115.628 22.44H102.107V24.44H115.628V22.44ZM101.113 23.5481C101.278 25.0613 102.004 26.291 103.248 27.1752L104.407 25.5448C103.624 24.989 103.204 24.272 103.102 23.3319L101.113 23.5481ZM103.248 27.1752C104.483 28.0528 106.069 28.44 107.908 28.44V26.44C106.333 26.44 105.198 26.1072 104.407 25.5448L103.248 27.1752ZM107.908 28.44C109.058 28.44 110.184 28.3418 111.284 28.1443L110.931 26.1757C109.951 26.3516 108.944 26.44 107.908 26.44V28.44ZM111.304 28.1406C112.41 27.9193 113.353 27.6483 114.11 27.3153L113.305 25.4847C112.728 25.7383 111.938 25.9741 110.911 26.1794L111.304 28.1406ZM112.721 26.5631L113.521 31.4031L115.494 31.0769L114.694 26.2369L112.721 26.5631ZM114.06 30.3456C113.812 30.4699 113.445 30.6107 112.94 30.7622L113.515 32.6778C114.076 32.5093 114.563 32.3301 114.955 32.1344L114.06 30.3456ZM112.94 30.7622C112.457 30.9071 111.901 31.0315 111.27 31.1326L111.585 33.1074C112.287 32.9952 112.931 32.8529 113.515 32.6778L112.94 30.7622ZM111.224 31.141C110.62 31.2667 109.96 31.3687 109.241 31.4457L109.454 33.4343C110.229 33.3513 110.955 33.2399 111.631 33.099L111.224 31.141ZM109.241 31.4457C108.529 31.5219 107.818 31.56 107.107 31.56V33.56C107.89 33.56 108.672 33.5181 109.454 33.4343L109.241 31.4457ZM107.107 31.56C105.31 31.56 103.787 31.294 102.516 30.7903L101.779 32.6497C103.335 33.266 105.118 33.56 107.107 33.56V31.56ZM102.522 30.7928C101.249 30.2787 100.21 29.5922 99.3845 28.7429L97.9505 30.1371C98.9915 31.2078 100.273 32.0413 101.773 32.6472L102.522 30.7928ZM99.4038 28.7634C98.596 27.8842 97.9852 26.8467 97.5743 25.6381L95.6807 26.2819C96.1765 27.74 96.9257 29.0224 97.9312 30.1166L99.4038 28.7634ZM97.5799 25.6552C97.1879 24.4302 96.9875 23.094 96.9875 21.64H94.9875C94.9875 23.2794 95.2138 24.8232 95.6751 26.2648L97.5799 25.6552ZM110.986 19.3074C110.955 18.7113 110.845 18.1293 110.656 17.5638L108.759 18.1962C108.89 18.5907 108.967 18.9954 108.989 19.4126L110.986 19.3074ZM110.671 17.6124C110.499 16.9931 110.203 16.4353 109.787 15.9492L108.268 17.2508C108.492 17.5114 108.649 17.8069 108.744 18.1476L110.671 17.6124ZM109.814 15.9822C109.418 15.4785 108.91 15.083 108.315 14.7856L107.42 16.5744C107.785 16.757 108.05 16.9749 108.241 17.2178L109.814 15.9822ZM108.335 14.7962C107.696 14.4578 106.949 14.32 106.147 14.32V16.32C106.733 16.32 107.132 16.4222 107.4 16.5638L108.335 14.7962ZM106.147 14.32C105.362 14.32 104.629 14.4614 103.98 14.7856L104.875 16.5744C105.186 16.4186 105.599 16.32 106.147 16.32V14.32ZM104.021 14.7662C103.415 15.0357 102.891 15.4155 102.468 15.9092L103.987 17.2108C104.204 16.9579 104.48 16.751 104.834 16.5938L104.021 14.7662ZM102.468 15.9092C102.064 16.3812 101.753 16.927 101.529 17.5343L103.406 18.2257C103.555 17.8196 103.751 17.4854 103.987 17.2108L102.468 15.9092ZM101.519 17.5638C101.341 18.0967 101.208 18.6437 101.12 19.204L103.095 19.516C103.167 19.063 103.274 18.6233 103.416 18.1962L101.519 17.5638ZM102.107 20.36H109.988V18.36H102.107V20.36ZM120.347 11.68L120.069 10.7194L119.347 10.9284V11.68H120.347ZM124.267 10.88L124.415 11.8689L124.423 11.8677L124.431 11.8664L124.267 10.88ZM133.747 11.2L133.368 12.1255L133.381 12.1307L133.393 12.1355L133.747 11.2ZM136.587 13.16L135.811 13.7906L136.587 13.16ZM138.067 16.2L137.097 16.4425H137.097L138.067 16.2ZM138.507 32V33H139.507V32H138.507ZM132.547 32H131.547V33H132.547V32ZM131.787 16.76L130.942 17.2951L131.787 16.76ZM127.587 15.64L127.642 16.6385L127.67 16.6369L127.697 16.6339L127.587 15.64ZM126.307 15.76L126.165 14.7701L125.307 14.8927V15.76H126.307ZM126.307 32V33H127.307V32H126.307ZM120.347 32H119.347V33H120.347V32ZM120.625 12.6406C121.58 12.3642 122.839 12.1054 124.415 11.8689L124.119 9.89106C122.495 10.1346 121.141 10.4091 120.069 10.7194L120.625 12.6406ZM124.431 11.8664C125.973 11.6095 127.597 11.48 129.307 11.48V9.48C127.496 9.48 125.761 9.61716 124.102 9.89361L124.431 11.8664ZM129.307 11.48C131.013 11.48 132.354 11.7104 133.368 12.1255L134.126 10.2745C132.794 9.72957 131.174 9.48 129.307 9.48V11.48ZM133.393 12.1355C134.456 12.5369 135.246 13.0959 135.811 13.7906L137.363 12.5294C136.541 11.5175 135.438 10.7698 134.1 10.2645L133.393 12.1355ZM135.811 13.7906C136.403 14.5194 136.835 15.3968 137.097 16.4425L139.037 15.9575C138.712 14.6565 138.158 13.5073 137.363 12.5294L135.811 13.7906ZM137.097 16.4425C137.367 17.5232 137.507 18.7467 137.507 20.12H139.507C139.507 18.6133 139.354 17.2235 139.037 15.9575L137.097 16.4425ZM137.507 20.12V32H139.507V20.12H137.507ZM138.507 31H132.547V33H138.507V31ZM133.547 32V20.84H131.547V32H133.547ZM133.547 20.84C133.547 18.8896 133.3 17.2804 132.632 16.2249L130.942 17.2951C131.287 17.8396 131.547 18.9504 131.547 20.84H133.547ZM132.632 16.2249C131.866 15.0153 130.504 14.56 128.947 14.56V16.56C130.163 16.56 130.695 16.9047 130.942 17.2951L132.632 16.2249ZM128.947 14.56C128.479 14.56 127.988 14.5892 127.476 14.6461L127.697 16.6339C128.145 16.5841 128.562 16.56 128.947 16.56V14.56ZM127.531 14.6415C127.03 14.6694 126.574 14.7117 126.165 14.7701L126.448 16.7499C126.787 16.7016 127.184 16.6639 127.642 16.6385L127.531 14.6415ZM125.307 15.76V32H127.307V15.76H125.307ZM126.307 31H120.347V33H126.307V31ZM121.347 32V11.68H119.347V32H121.347ZM150.222 25.76L151.026 25.1661L150.222 25.76ZM155.382 27.4L155.44 28.3983L155.469 28.3966L155.498 28.3932L155.382 27.4ZM156.502 27.24L156.68 28.2239L157.502 28.0746V27.24H156.502ZM156.502 16.4H157.502V15.854L157.042 15.5588L156.502 16.4ZM155.022 15.8L154.758 16.7648L154.769 16.7676L155.022 15.8ZM162.462 31.32L162.749 32.2778L163.462 32.064V31.32H162.462ZM160.622 31.8L160.81 32.782L160.828 32.7785L160.846 32.7744L160.622 31.8ZM158.422 32.16L158.285 31.1694L158.28 31.1701L158.422 32.16ZM156.102 32.4L156.035 31.4022L156.017 31.4034L155.999 31.4053L156.102 32.4ZM145.782 29.6L145.064 30.2971L145.074 30.3071L145.782 29.6ZM143.622 26.16L142.679 26.4928L142.683 26.5041L142.687 26.5152L143.622 26.16ZM143.542 17L144.496 17.2993L144.497 17.2941L143.542 17ZM145.382 13.48L144.613 12.8398L145.382 13.48ZM148.302 11.28L147.905 10.3619L147.897 10.3653L148.302 11.28ZM154.502 10.76L154.259 11.7302L154.268 11.7324L154.502 10.76ZM156.502 11.44L156.099 12.3553L157.502 12.9725V11.44H156.502ZM156.502 1.92L156.343 0.932724L155.502 1.06818V1.92H156.502ZM162.462 0.959999H163.462V-0.213964L162.303 -0.0272756L162.462 0.959999ZM147.982 21.32C147.982 23.3054 148.428 25.014 149.417 26.3539L151.026 25.1661C150.362 24.266 149.982 23.0146 149.982 21.32H147.982ZM149.417 26.3539C150.466 27.7746 152.018 28.44 153.902 28.44V26.44C152.532 26.44 151.631 25.9854 151.026 25.1661L149.417 26.3539ZM153.902 28.44C154.451 28.44 154.964 28.4263 155.44 28.3983L155.323 26.4017C154.892 26.4271 154.419 26.44 153.902 26.44V28.44ZM155.498 28.3932C155.963 28.3385 156.359 28.2824 156.68 28.2239L156.323 26.2561C156.058 26.3043 155.707 26.3548 155.265 26.4068L155.498 28.3932ZM157.502 27.24V16.4H155.502V27.24H157.502ZM157.042 15.5588C156.551 15.243 155.95 15.0086 155.274 14.8324L154.769 16.7676C155.32 16.9114 155.705 17.077 155.961 17.2412L157.042 15.5588ZM155.285 14.8352C154.612 14.6516 153.923 14.56 153.222 14.56V16.56C153.747 16.56 154.258 16.6284 154.758 16.7648L155.285 14.8352ZM153.222 14.56C151.557 14.56 150.168 15.1417 149.236 16.4072C148.347 17.6154 147.982 19.3067 147.982 21.32H149.982C149.982 19.4933 150.323 18.3046 150.847 17.5928C151.329 16.9383 152.059 16.56 153.222 16.56V14.56ZM162.174 30.3622C161.666 30.5146 161.074 30.6692 160.397 30.8256L160.846 32.7744C161.555 32.6108 162.19 32.4454 162.749 32.2778L162.174 30.3622ZM160.433 30.818C159.758 30.9477 159.043 31.0649 158.285 31.1694L158.558 33.1506C159.347 33.0418 160.098 32.919 160.81 32.782L160.433 30.818ZM158.28 31.1701C157.56 31.273 156.812 31.3504 156.035 31.4022L156.168 33.3978C156.992 33.3429 157.79 33.2604 158.563 33.1499L158.28 31.1701ZM155.999 31.4053C155.257 31.482 154.545 31.52 153.862 31.52V33.52C154.619 33.52 155.4 33.478 156.204 33.3947L155.999 31.4053ZM153.862 31.52C152.225 31.52 150.8 31.2808 149.571 30.8229L148.872 32.6971C150.364 33.2526 152.032 33.52 153.862 33.52V31.52ZM149.571 30.8229C148.332 30.3613 147.311 29.715 146.489 28.8929L145.074 30.3071C146.119 31.3516 147.392 32.1454 148.872 32.6971L149.571 30.8229ZM146.499 28.9029C145.667 28.0471 145.018 27.019 144.556 25.8048L142.687 26.5152C143.239 27.9677 144.03 29.2329 145.065 30.2971L146.499 28.9029ZM144.565 25.8272C144.128 24.5901 143.902 23.1849 143.902 21.6H141.902C141.902 23.3751 142.155 25.0099 142.679 26.4928L144.565 25.8272ZM143.902 21.6C143.902 19.9755 144.105 18.5456 144.496 17.2993L142.587 16.7007C142.125 18.1744 141.902 19.8112 141.902 21.6H143.902ZM144.497 17.2941C144.891 16.0139 145.447 14.9633 146.15 14.1202L144.613 12.8398C143.716 13.9167 143.045 15.2128 142.586 16.7059L144.497 17.2941ZM146.15 14.1202C146.851 13.2789 147.699 12.6393 148.706 12.1947L147.897 10.3653C146.61 10.934 145.512 11.7611 144.613 12.8398L146.15 14.1202ZM148.698 12.1981C149.727 11.7538 150.922 11.52 152.302 11.52V9.52C150.695 9.52 149.223 9.79289 147.905 10.3619L148.698 12.1981ZM152.302 11.52C153.066 11.52 153.715 11.5942 154.259 11.7301L154.744 9.78986C154.008 9.60577 153.19 9.52 152.302 9.52V11.52ZM154.268 11.7324C154.873 11.8776 155.483 12.0845 156.099 12.3553L156.904 10.5247C156.186 10.2088 155.463 9.96238 154.735 9.78761L154.268 11.7324ZM157.502 11.44V1.92H155.502V11.44H157.502ZM156.661 2.90727L162.621 1.94727L162.303 -0.0272756L156.343 0.932724L156.661 2.90727ZM161.462 0.959999V31.32H163.462V0.959999H161.462ZM167.882 16.76L166.959 16.3766L166.955 16.3855L167.882 16.76ZM170.162 13.24L169.455 12.5329L170.162 13.24ZM173.362 11.12L172.998 10.1887L172.991 10.1915L173.362 11.12ZM184.202 13.16L183.474 13.8457L183.479 13.851L184.202 13.16ZM186.762 22.36L187.76 22.4265L187.76 22.4224L186.762 22.36ZM186.682 23.44V24.44H187.602L187.679 23.523L186.682 23.44ZM173.162 23.44V22.44H172.048L172.168 23.5481L173.162 23.44ZM174.882 26.36L174.303 27.1752L174.882 26.36ZM182.162 27.16L182.339 28.1443L182.349 28.1425L182.358 28.1406L182.162 27.16ZM184.762 26.4L185.749 26.2369L185.539 24.9658L184.359 25.4847L184.762 26.4ZM185.562 31.24L186.009 32.1344L186.669 31.8046L186.549 31.0769L185.562 31.24ZM184.282 31.72L183.995 30.7622L184.282 31.72ZM182.482 32.12L182.324 31.1326L182.301 31.1363L182.278 31.141L182.482 32.12ZM180.402 32.44L180.509 33.4343L180.402 32.44ZM173.202 31.72L172.828 32.6473L172.834 32.6497L173.202 31.72ZM169.722 29.44L168.986 30.1166L168.995 30.127L169.005 30.1371L169.722 29.44ZM167.682 25.96L166.73 26.2648L166.733 26.2734L166.735 26.2819L167.682 25.96ZM181.042 19.36V20.36H182.096L182.041 19.3074L181.042 19.36ZM180.762 17.88L179.799 18.1476L179.805 18.1721L179.814 18.1962L180.762 17.88ZM180.082 16.6L179.296 17.2178L179.309 17.2346L179.323 17.2508L180.082 16.6ZM178.922 15.68L178.454 16.5638L178.465 16.5692L178.475 16.5744L178.922 15.68ZM175.482 15.68L175.888 16.5938L175.909 16.5846L175.929 16.5744L175.482 15.68ZM173.522 17.88L172.584 17.5343L172.578 17.549L172.574 17.5638L173.522 17.88ZM173.162 19.36L172.174 19.204L171.992 20.36H173.162V19.36ZM168.042 21.64C168.042 19.8709 168.308 18.3766 168.809 17.1345L166.955 16.3855C166.337 17.9167 166.042 19.6757 166.042 21.64H168.042ZM168.806 17.1434C169.35 15.832 170.042 14.7742 170.869 13.9471L169.455 12.5329C168.416 13.5725 167.588 14.8613 166.959 16.3766L168.806 17.1434ZM170.869 13.9471C171.709 13.1074 172.662 12.4771 173.734 12.0485L172.991 10.1915C171.662 10.7229 170.482 11.5059 169.455 12.5329L170.869 13.9471ZM173.727 12.0512C174.841 11.6153 175.971 11.4 177.122 11.4V9.4C175.714 9.4 174.337 9.66467 172.998 10.1888L173.727 12.0512ZM177.122 11.4C179.888 11.4 181.964 12.2427 183.474 13.8457L184.93 12.4743C182.974 10.3973 180.33 9.4 177.122 9.4V11.4ZM183.479 13.851C184.973 15.4131 185.802 17.8038 185.802 21.2H187.802C187.802 17.5029 186.899 14.5336 184.925 12.469L183.479 13.851ZM185.802 21.2C185.802 21.5217 185.79 21.8872 185.764 22.2976L187.76 22.4224C187.788 21.9795 187.802 21.5716 187.802 21.2H185.802ZM185.764 22.2935C185.738 22.6893 185.712 23.0436 185.686 23.357L187.679 23.523C187.706 23.1964 187.733 22.8307 187.76 22.4265L185.764 22.2935ZM186.682 22.44H173.162V24.44H186.682V22.44ZM172.168 23.5481C172.333 25.0613 173.059 26.291 174.303 27.1752L175.461 25.5448C174.679 24.989 174.259 24.272 174.156 23.3319L172.168 23.5481ZM174.303 27.1752C175.538 28.0528 177.124 28.44 178.962 28.44V26.44C177.387 26.44 176.253 26.1072 175.461 25.5448L174.303 27.1752ZM178.962 28.44C180.113 28.44 181.239 28.3418 182.339 28.1443L181.986 26.1757C181.006 26.3516 179.998 26.44 178.962 26.44V28.44ZM182.358 28.1406C183.465 27.9193 184.408 27.6483 185.165 27.3153L184.359 25.4847C183.783 25.7383 182.993 25.9741 181.966 26.1794L182.358 28.1406ZM183.776 26.5631L184.576 31.4031L186.549 31.0769L185.749 26.2369L183.776 26.5631ZM185.115 30.3456C184.866 30.4699 184.5 30.6107 183.995 30.7622L184.57 32.6778C185.131 32.5093 185.618 32.3301 186.009 32.1344L185.115 30.3456ZM183.995 30.7622C183.512 30.9071 182.956 31.0315 182.324 31.1326L182.64 33.1074C183.342 32.9952 183.986 32.8529 184.57 32.6778L183.995 30.7622ZM182.278 31.141C181.675 31.2667 181.014 31.3687 180.296 31.4457L180.509 33.4343C181.283 33.3513 182.01 33.2399 182.686 33.099L182.278 31.141ZM180.296 31.4457C179.584 31.5219 178.873 31.56 178.162 31.56V33.56C178.945 33.56 179.727 33.5181 180.509 33.4343L180.296 31.4457ZM178.162 31.56C176.365 31.56 174.842 31.294 173.571 30.7903L172.834 32.6497C174.389 33.266 176.173 33.56 178.162 33.56V31.56ZM173.577 30.7928C172.304 30.2787 171.265 29.5922 170.439 28.7429L169.005 30.1371C170.046 31.2078 171.327 32.0413 172.828 32.6472L173.577 30.7928ZM170.459 28.7634C169.651 27.8842 169.04 26.8467 168.629 25.6381L166.735 26.2819C167.231 27.74 167.98 29.0224 168.986 30.1166L170.459 28.7634ZM168.635 25.6552C168.243 24.4302 168.042 23.094 168.042 21.64H166.042C166.042 23.2794 166.268 24.8232 166.73 26.2648L168.635 25.6552ZM182.041 19.3074C182.009 18.7113 181.899 18.1293 181.711 17.5638L179.814 18.1962C179.945 18.5907 180.022 18.9954 180.044 19.4126L182.041 19.3074ZM181.726 17.6124C181.554 16.9931 181.258 16.4353 180.841 15.9492L179.323 17.2508C179.546 17.5114 179.704 17.8069 179.799 18.1476L181.726 17.6124ZM180.868 15.9822C180.473 15.4785 179.964 15.083 179.369 14.7856L178.475 16.5744C178.84 16.757 179.105 16.9749 179.296 17.2178L180.868 15.9822ZM179.39 14.7962C178.751 14.4578 178.004 14.32 177.202 14.32V16.32C177.787 16.32 178.187 16.4222 178.454 16.5638L179.39 14.7962ZM177.202 14.32C176.417 14.32 175.683 14.4614 175.035 14.7856L175.929 16.5744C176.241 16.4186 176.654 16.32 177.202 16.32V14.32ZM175.076 14.7662C174.47 15.0357 173.946 15.4155 173.523 15.9092L175.041 17.2108C175.258 16.9579 175.535 16.751 175.888 16.5938L175.076 14.7662ZM173.523 15.9092C173.118 16.3812 172.808 16.927 172.584 17.5343L174.461 18.2257C174.61 17.8196 174.806 17.4854 175.041 17.2108L173.523 15.9092ZM172.574 17.5638C172.396 18.0967 172.263 18.6437 172.174 19.204L174.15 19.516C174.221 19.063 174.329 18.6233 174.471 18.1962L172.574 17.5638ZM173.162 20.36H181.042V18.36H173.162V20.36ZM204.082 16.24L203.839 17.2101L204.853 17.4637L205.062 16.4392L204.082 16.24ZM202.202 15.84L201.985 16.8162L202.002 16.82L202.019 16.8233L202.202 15.84ZM198.522 15.72L198.626 16.7145L198.648 16.7122L198.67 16.7089L198.522 15.72ZM197.362 15.92L197.074 14.9622L196.362 15.176V15.92H197.362ZM197.362 32V33H198.362V32H197.362ZM191.402 32H190.402V33H191.402V32ZM191.402 12.08L191.071 11.1361L190.402 11.3705V12.08H191.402ZM195.162 11.04L195.379 12.0163L195.392 12.0132L195.162 11.04ZM201.202 10.6L201.085 11.5931L201.114 11.5966L201.143 11.5983L201.202 10.6ZM202.562 10.76L202.388 11.7448L202.416 11.7498L202.445 11.7532L202.562 10.76ZM203.922 11L203.693 11.9734L203.72 11.9799L203.748 11.9848L203.922 11ZM205.082 11.32L206.062 11.5192L206.225 10.7132L205.466 10.3969L205.082 11.32ZM204.324 15.2699C203.765 15.1302 203.118 14.9927 202.384 14.8567L202.019 16.8233C202.725 16.954 203.331 17.0831 203.839 17.2101L204.324 15.2699ZM202.418 14.8638C201.619 14.6862 200.773 14.6 199.882 14.6V16.6C200.644 16.6 201.344 16.6738 201.985 16.8162L202.418 14.8638ZM199.882 14.6C199.442 14.6 198.936 14.6466 198.373 14.7311L198.67 16.7089C199.174 16.6334 199.574 16.6 199.882 16.6V14.6ZM198.417 14.7255C197.89 14.7809 197.431 14.8553 197.074 14.9622L197.649 16.8778C197.826 16.8247 198.14 16.7657 198.626 16.7145L198.417 14.7255ZM196.362 15.92V32H198.362V15.92H196.362ZM197.362 31H191.402V33H197.362V31ZM192.402 32V12.08H190.402V32H192.402ZM191.732 13.0239C192.752 12.6667 193.966 12.3301 195.378 12.0162L194.945 10.0638C193.477 10.3899 192.184 10.7466 191.071 11.1361L191.732 13.0239ZM195.392 12.0132C196.77 11.6873 198.319 11.52 200.042 11.52V9.52C198.191 9.52 196.486 9.69941 194.932 10.0668L195.392 12.0132ZM200.042 11.52C200.31 11.52 200.655 11.5426 201.085 11.5931L201.318 9.60685C200.841 9.5507 200.413 9.52 200.042 9.52V11.52ZM201.143 11.5983C201.557 11.6226 201.972 11.6714 202.388 11.7448L202.735 9.77522C202.244 9.68859 201.753 9.63069 201.26 9.60172L201.143 11.5983ZM202.445 11.7532C202.86 11.802 203.275 11.8753 203.693 11.9734L204.151 10.0266C203.661 9.91139 203.17 9.82471 202.678 9.76685L202.445 11.7532ZM203.748 11.9848C204.151 12.0559 204.463 12.1455 204.697 12.2431L205.466 10.3969C205.06 10.2279 204.599 10.1041 204.095 10.0152L203.748 11.9848ZM204.102 11.1208L203.102 16.0408L205.062 16.4392L206.062 11.5192L204.102 11.1208ZM220.206 39.4V40.4H220.919L221.151 39.7262L220.206 39.4ZM214.086 39.4L213.141 39.0721L212.68 40.4H214.086V39.4ZM227.526 0.679998V-0.320002H226.815L226.581 0.352083L227.526 0.679998ZM233.566 0.679998L234.511 1.00617L234.969 -0.320002H233.566V0.679998ZM220.206 38.4H214.086V40.4H220.206V38.4ZM215.031 39.7279L228.471 1.00791L226.581 0.352083L213.141 39.0721L215.031 39.7279ZM227.526 1.68H233.566V-0.320002H227.526V1.68ZM232.621 0.353827L219.261 39.0738L221.151 39.7262L234.511 1.00617L232.621 0.353827ZM253.267 22.52L253.655 23.4417L254.267 23.184V22.52H253.267ZM236.067 29.76L235.115 30.0668L235.45 31.1048L236.455 30.6817L236.067 29.76ZM234.507 24.92L234.145 23.9879L233.266 24.3294L233.555 25.2268L234.507 24.92ZM247.067 20.04L247.429 20.9721L249.828 20.04L247.429 19.1079L247.067 20.04ZM234.507 15.16L233.555 14.8532L233.266 15.7506L234.145 16.0921L234.507 15.16ZM236.067 10.32L236.455 9.39832L235.45 8.97521L235.115 10.0132L236.067 10.32ZM253.267 17.56H254.267V16.8959L253.655 16.6383L253.267 17.56ZM252.879 21.5983L235.679 28.8383L236.455 30.6817L253.655 23.4417L252.879 21.5983ZM237.019 29.4532L235.459 24.6132L233.555 25.2268L235.115 30.0668L237.019 29.4532ZM234.869 25.8521L247.429 20.9721L246.705 19.1079L234.145 23.9879L234.869 25.8521ZM247.429 19.1079L234.869 14.2279L234.145 16.0921L246.705 20.9721L247.429 19.1079ZM235.459 15.4668L237.019 10.6268L235.115 10.0132L233.555 14.8532L235.459 15.4668ZM235.679 11.2417L252.879 18.4817L253.655 16.6383L236.455 9.39832L235.679 11.2417ZM252.267 17.56V22.52H254.267V17.56H252.267Z" fill="black" mask="url(#path-1-outside-1_3_3)"/>
</g>
<defs>
<filter id="filter0_d_3_3" x="0" y="0.679993" width="257.267" height="46.72" filterUnits="userSpaceOnUse" color-interpolation-filters="sRGB">
<feFlood flood-opacity="0" result="BackgroundImageFix"/>
<feColorMatrix in="SourceAlpha" type="matrix" values="0 0 0 0 0 0 0 0 0 0 0 0 0 0 0 0 0 0 127 0" result="hardAlpha"/>
<feOffset dy="4"/>
<feGaussianBlur stdDeviation="2"/>
<feColorMatrix type="matrix" values="0 0 0 0 0 0 0 0 0 0 0 0 0 0 0 0 0 0 0.25 0"/>
<feBlend mode="normal" in2="BackgroundImageFix" result="effect1_dropShadow_3_3"/>
<feBlend mode="normal" in="SourceGraphic" in2="effect1_dropShadow_3_3" result="shape"/>
</filter>
</defs>
</svg>
