<svg width="50" height="55" viewBox="0 0 50 55" fill="none" xmlns="http://www.w3.org/2000/svg">
<path d="M21.7893 54.484L17.0241 52.5985C16.5241 52.4067 16.2429 51.693 16.3835 51.0112L27.0467 0.922814C27.1873 0.241049 27.7107 -0.142444 28.2107 0.0493029L32.9759 1.93481C33.4759 2.12656 33.7571 2.84028 33.6165 3.52204L22.9533 53.6105C22.8049 54.2922 22.2893 54.6864 21.7893 54.484ZM12.8838 42.5318L16.2819 37.589C16.6413 37.067 16.6178 36.2361 16.2194 35.7567L9.14186 27.2666L16.2194 18.7765C16.6178 18.2972 16.6491 17.4663 16.2819 16.9443L12.8838 12.0015C12.5322 11.4902 11.9385 11.4582 11.5557 11.9482L0.298805 26.3292C-0.0996016 26.8299 -0.0996016 27.6927 0.298805 28.1934L11.5557 42.585C11.9385 43.0751 12.5322 43.0538 12.8838 42.5318ZM38.4443 42.5957L49.7012 28.2041C50.0996 27.7034 50.0996 26.8405 49.7012 26.3399L38.4443 11.9376C38.0693 11.4582 37.4756 11.4795 37.1162 11.9908L33.7181 16.9336C33.3587 17.4556 33.3822 18.2865 33.7806 18.7659L40.8581 27.2666L33.7806 35.7567C33.3822 36.2361 33.3509 37.067 33.7181 37.589L37.1162 42.5318C37.4678 43.0538 38.0615 43.0751 38.4443 42.5957Z" fill="#B9971E"/>
</svg>
